<?xml version="1.0" standalone="no"?>
<!DOCTYPE svg PUBLIC "-//W3C//DTD SVG 1.1//EN" "http://www.w3.org/Graphics/SVG/1.1/DTD/svg11.dtd">
<svg xmlns="http://www.w3.org/2000/svg">
<metadata>Copyright (C) 2023 by original authors @ fontello.com</metadata>
<defs>
<font id="klbtheme" horiz-adv-x="1000" >
<font-face font-family="klbtheme" font-weight="400" font-stretch="normal" units-per-em="1000" ascent="850" descent="-150" />
<missing-glyph horiz-adv-x="1000" />
<glyph glyph-name="home-desk" unicode="&#xe800;" d="M969 428h-156v47c0 9-7 16-16 16-24 0-45-11-59-28-4 2-8 4-13 6l-32 10c-12 5-21 17-21 30v13h172c17 0 31 14 31 31v250c0 17-14 31-31 31h-438c-17 0-31-14-31-31v-250c0-17 14-31 31-31h172v-13c0-14-8-26-21-30l-32-11c-19-6-33-21-38-40h-190v266c0 8-7 15-16 15h-187c-9 0-16-7-16-15v-266h-47c-8 0-15-7-15-15v-94-438c0-8 7-15 15-15h63c8 0 15 7 15 15v110h157v-110c0-8 7-15 15-15h63c8 0 15 7 15 15v422h360v-109h-203c-43 0-78-35-78-78v-32c0-8 7-15 15-15h125v-12c0-37-13-71-38-98h-24c-26 0-47-21-47-47s21-46 47-46h218c26 0 47 21 47 46s-21 47-47 47h-24c-24 27-38 61-38 98v12h94c25 0 47 21 47 47v62 125h78v-422c0-8 7-15 15-15h63c8 0 15 7 15 15v438 94c0 8-7 15-15 15z m-563 375h438v-187h-438v187z m0-250v31h438v-31h-438z m129-114l32 11c25 8 42 32 42 59v13h32v-13c0-27 17-51 42-60l32-10c3-1 5-2 8-4-1-2-2-4-3-7h-199c3 5 8 9 14 11z m-426 239h157v-62h-157v62z m0-94h157v-62h-157v62z m0-93h157v-63h-157v63z m-31-594h-31v406h31v-406z m188 125h-157v125h157v-125z m0 156h-157v125h157v-125z m62-281h-31v406h31v-406z m16 437h-63-187-47v63h672v-63h-375z m390-406c9 0 16-7 16-16 0-8-7-15-16-15h-218c-9 0-16 7-16 15 0 9 7 16 16 16h218z m-90 96c0-4 1-8 2-12 3-10 7-21 11-30 2-4 4-8 6-12s4-7 7-10h-90c19 28 29 62 29 97v12h31v-12c1-11 2-22 4-33z m137 92c0-9-7-16-15-16h-297v16c0 25 21 47 47 47h265v-47z m0 78h-31v219c0 20 13 37 31 44v-263z m172-297h-31v406h31v-406z m0 437h-47-93v63h140v-63z m-373-375c19 29 29 63 29 98 0-35-10-69-29-98z m64 65c0-4 1-8 2-12-1 4-2 8-2 12z m19-54c2-3 5-7 7-11-2 4-5 8-7 11z m-6 12c2-4 4-8 6-12-2 4-4 8-6 12z" horiz-adv-x="1000" />

<glyph glyph-name="home-sofa" unicode="&#xe801;" d="M983 25h-50v156c47 16 74 63 66 111-7 40-38 72-77 81-2 0-4 0-5 0v52c0 74-60 133-134 133h-300c-73 0-133-59-133-133v-52c-42-6-75-39-82-81 0 0-1 0-1 0h-17v33c0 19-15 34-33 34h-50v116h33v-50c0-9 7-17 17-17s16 8 16 17v50h24c7 0 14 3 19 9 5 6 7 13 5 20l-30 184c-2 12-12 20-25 20h-152c-13 0-23-8-25-20l-30-184c-2-7 0-14 5-20 5-6 12-9 19-9h91v-117h-51c-18 0-33-14-33-33v-33h-17c-18 0-33-15-33-34v-233c0-19 15-34 33-34h484c9 0 16 8 16 17s-7 17-16 17h-50v33h333v-33h-50c-9 0-17-8-17-17s8-17 17-17h233c10 0 17 8 17 17s-7 17-17 17z m-930 483l28 167h138l28-167h-194z m30-183h134v-33h-134v33z m100-67v-52l-24 16c-5 4-12 4-18 0l-24-16v52h66z m84-233h-17-217v233h50v-83c0-6 4-12 9-15 6-3 12-2 17 1l41 27 41-27c5-3 12-4 17-1 6 3 9 9 9 15v83h50v-233z m66 0h-33v176c10-9 21-16 33-20v-156z m100 0h-66v168c0 8-6 15-13 17-25 5-45 23-51 47-7 25 1 51 19 67 12 12 28 18 45 18 2 0 4 0 6-1 35-4 61-34 60-69v-247z m367 67h-333v33h333v-33z m-333 66v67h100c27 0 50-22 50-50v-17h-150z m333 0h-150v17c0 28 23 50 50 50h100v-67z m0 117v-17h-100c-26 0-51-12-67-33-15 21-40 33-66 33h-100v14c0 49-35 92-84 102v51c0 56 45 100 100 100h134v-133c0-9 7-17 16-17s17 8 17 17v133h133c56 0 100-44 100-100v-52c-48-8-83-49-83-98z m100-82v-168h-67l0 250c0 20 9 39 25 52 12 10 26 15 42 15h0c5 0 10-1 15-2 30-7 52-34 52-66s-23-58-54-64c-7-2-13-9-13-17z m-400 249c-9 0-17-8-17-17v-17c0-9 8-16 17-16s17 7 17 16v17c0 9-8 17-17 17z m267 0c-10 0-17-8-17-17v-17c0-9 7-16 17-16 9 0 16 7 16 16v17c0 9-7 17-16 17z m-400-150c-10 0-17-8-17-17v-17c0-9 7-16 17-16s16 7 16 16v17c0 9-7 17-16 17z m533 0c-9 0-17-8-17-17v-17c0-9 8-16 17-16s17 7 17 16v17c0 9-8 17-17 17z" horiz-adv-x="1000" />

<glyph glyph-name="home-cradle" unicode="&#xe802;" d="M962-28c-2 8-7 15-13 20-9 7-21 10-32 7-40-9-80-16-121-21l-19 132c56 31 90 91 90 155v104c19 8 29 29 21 48-6 15-19 24-34 24h-29v241c0 59-48 108-108 108h-42c-6 14-19 23-34 23h-282c-15 0-28-9-34-23h-42c-60 0-108-49-108-108v-241h-28c-21 0-38-17-38-37 0-15 10-29 24-35v-104c0-65 34-124 90-155l-19-132c-41 5-81 12-121 21-20 5-40-7-45-27s7-40 27-45c102-25 264-40 435-40 171 0 334 15 435 40 20 5 32 25 27 45z m-122 341l-45-24-53 28c-4 2-9 2-13 0l-52-28-53 28c-4 2-9 2-13 0l-52-28-53 28c-4 2-9 2-13 0l-52-28-53 28c-4 2-9 2-13 0l-52-28-53 28c-4 2-9 2-13 0l-52-28-45 24v54h680v-54z m-481 473h282c5 0 9-5 9-10s-4-10-9-10h-282c-5 0-9 4-9 10s4 10 9 10z m281-190l1-5-4 3c-4 2-9 2-13 0l-5-3 1 5c1 5-1 9-4 12l-3 4 5 1c4 0 8 3 10 7l2 4 2-4c2-4 6-7 11-7l5-1-4-4c-3-3-4-7-4-12z m-260 0l1-5-5 3c-4 2-9 2-13 0l-4-3 1 5c0 5-1 9-4 12l-4 4 5 1c5 0 8 3 10 7l3 4 2-4c2-4 6-7 10-7l5-1-4-4c-2-3-4-7-3-12z m-177 86c0 44 36 80 80 80h42c5-13 17-22 31-23v-80l-10-20-25-4c-7-1-13-8-11-16 0-3 1-5 4-7l18-18-4-25c-2-8 3-15 11-16 3-1 6 0 8 1l23 12 23-12c6-3 14-1 18 6 2 3 2 5 2 8l-5 26 19 17c5 6 5 14 0 20-2 2-5 3-8 4l-25 3-11 21v80h103v-120c-32-8-53-40-45-73 8-33 40-53 73-45 32 7 53 40 45 72-5 23-23 40-45 46v120h103v-80l-10-20-26-4c-7-1-12-8-11-16 0-3 2-5 4-7l18-18-4-25c-1-8 4-15 11-16 3-1 6 0 9 1l22 12 23-12c7-3 15-1 19 6 1 3 1 5 1 8l-4 26 18 17c5 6 5 14 0 20-2 2-5 3-8 4l-25 3-10 21v80c14 1 26 10 31 23h42c45 0 81-36 81-80v-241h-595v241z m297-89c18 0 33-15 33-33s-15-34-33-34-33 15-33 34c0 18 15 33 33 33z m-353-199l0 0c-6 0-10 4-10 10 0 5 4 10 10 10h0 0 707c5 0 9-5 9-10 0-6-4-10-9-10h0c-1 0-1 0-1 0h-706c0 0 0 0 0 0z m13-129v17l39-20c4-2 9-2 13 0l53 28 52-28c4-2 9-2 13 0l52 28 53-28c4-2 9-2 13 0l52 28 53-28c4-2 9-2 13 0l52 28 53-28c4-2 9-2 13 0l52 28 53-28c4-2 9-2 13 0l39 20v-17c0-84-68-151-151-151h-379c-83 0-151 67-151 151z m609-290c-6-1-13-2-19-2l-18 118c7 2 13 4 19 6l18-122z m-46-5c-69-5-145-9-223-9-78 0-154 3-222 9l17 117c5 0 11-1 16-1h378c5 0 11 1 16 1l18-117z m-455 122l-18-119c-6 0-13 1-19 2l18 123c6-3 13-5 19-6z m668-129c0 0 0 0 0 0 0-5-3-9-8-10-99-24-259-39-428-39-169 0-329 15-428 39-6 2-9 7-7 12 0 2 1 4 3 5 2 2 4 2 6 3 1 0 2-1 2-1 97-24 256-38 424-38s327 14 424 38c3 1 6 0 8-2 2-1 4-4 4-7 0 0 0 0 0 0l0 0z" horiz-adv-x="1000" />

<glyph glyph-name="home-decorative" unicode="&#xe803;" d="M363 701c-30 0-55-25-55-56 0-30 25-55 55-55 31 0 56 25 56 55 0 31-25 56-56 56z m0-84c-15 0-28 13-28 28s13 28 28 28 28-12 28-28-12-28-28-28z m123-437l0 0c0 29-23 52-53 53h-216c-29 0-53-24-53-53s24-53 53-53h15l-55-207c-2-7 3-15 10-17 7-2 15 2 17 9l22 81 100 38 100-38 22-81c1-7 9-11 16-10 8 2 13 10 10 17l-55 207h15c29 1 52 25 52 54z m-252-154l9 36 43-17-52-19z m91 34l-75 28 10 39h129l11-39-75-28z m39-15l43 17 9-36-52 19z m-147 109c-14 0-25 12-25 26s12 25 26 26h216c14 0 25-12 25-26s-11-26-25-26h-217z m589 255l0 0c-70 32-98-21-113-50-3-6-5-11-10-16-6 6-11 13-14 21-2 32-10 56-25 73v347c0 7-6 13-13 14h-414c-8 0-13-7-14-14v-512c0-8 6-13 13-14h343c3-6 7-11 12-15 27-25 38-70 43-96 0-2 0-6 1-8h-6c-22 0-39-19-36-41l19-162c3-19 18-33 37-33h112c18 0 34 14 36 33l20 162c2 22-15 41-37 41h-8c0 12 0 26 0 42-1 13 11 22 29 35 18 15 42 32 32 61-4 10 3 26 10 43 11 27 28 69-17 89z m-253-124h-322v485h385v-315c-9 3-18 4-28 3v271c0 8-6 13-13 14h-303c-8 0-13-6-14-13v-403c0-8 6-14 13-14h284c-2-10-2-18-2-28z m8 163c-12-6-21-17-25-30-9-30 12-62 18-72 1-1 2-3 2-5h-270l0 40c37 7 77 6 113-3 45-9 60 17 74 40 15 26 30 52 88 56v-26z m-113-17c-13-22-18-32-43-26-39 9-80 10-120 4v306h275v-214h1c-73-4-96-42-113-70z m142-167l0 0c-17 15-4 57-4 63 1 12-2 24-9 34-10 13-18 34-14 49 7 20 38 29 57 12 21-19 20-59 22-64 5-12 12-23 21-32-11-6-18-13-25-22-6 14-9 30-10 45 0 8-5 14-13 14s-14-5-14-13c-2-43 27-87 33-98 8-11 7-20 1-28-4-4-7-9-9-15-8 21-20 39-36 55z m169-152c7 0 11-5 11-11l-20-162c-1-5-5-9-9-9h-112c-5 0-9 4-9 9l-20 162c-1 5 4 11 9 11h150z m38 218c-9-21-18-43-10-63 3-8-3-14-23-29-19-14-42-31-40-60 1-15 2-28 1-39h-28c2 38 15 142 68 176 6 4 8 12 4 19s-13 7-19 4c-65-43-78-159-80-199h-26c-1 3-1 6-2 11-1 17 1 41 14 56 10 14 14 31 7 46-22 53 23 38 50 89 21 39 35 65 81 44 19-9 18-19 3-55z" horiz-adv-x="1000" />

<glyph glyph-name="home-kitchen" unicode="&#xe804;" d="M465 657l-74 89v57c0 9-7 16-16 16h-250c-9 0-16-7-16-16v-57l-74-89c-4-5-5-11-2-17 2-5 8-9 14-9h406c6 0 12 4 14 9 3 6 2 12-2 17z m-324 131h218v-32h-218v32z m-61-125l52 62h236l52-62h-340z m858 156h-407c-8 0-15-7-15-16v-187c0-9 7-16 15-16h407c8 0 15 7 15 16v187c0 9-7 16-15 16z m-297-188h-32v47h32v-47z m125 0h-32v94h32v-94z m109 0h-31v47c0 9 7 16 15 16 9 0 16-7 16-16v-47z m47 0h-16v47c0 20-13 38-31 44v19h-31v-19c-18-6-31-24-31-44v-47h-16v110c0 8-7 15-16 15h-62c-9 0-16-7-16-15v-110h-31v47h16v31h-47v32h-32v-32h-46v-31h15v-47h-31v157h375v-157z m-781 78h31v-31h-31v31z m62 0h31v-31h-31v31z m750-328h-31v172c0 9-7 16-16 16h-343c-9 0-16-7-16-16v-172h-109v32h-32v-32h-62v32h-31v-32h-94v16h15c9 0 16 7 16 16v78h16v31h-32-156-31v-31h16v-78c0-9 7-16 15-16h16v-16h-47c-9 0-16-7-16-15v-63-406c0-9 7-16 16-16h906c9 0 16 7 16 16v406 63c0 8-7 15-16 15z m-140 157h78v-157h-78v157z m-235 0h203v-157h-203v157z m-484-47h125v-63h-125v63z m94-94v-16h-63v16h63z m281-485h-406v376h406v-376z m0 407h-406v31h406v-31z m469-407h-438v251h438v-251z m0 282h-438v94h438v-94z m0 125h-438v31h63 343 32v-31z m-188 203h-141c-8 0-15-7-15-16v-93c0-9 7-16 15-16h141c9 0 16 7 16 16v93c0 9-7 16-16 16z m-16-94h-109v63h109v-63z m-625-484h313c9 0 16 7 16 15v219c0 9-7 16-16 16h-313c-8 0-15-7-15-16v-219c0-8 7-15 15-15z m16 219h281v-188h-281v188z" horiz-adv-x="1000" />

<glyph glyph-name="home-armchair" unicode="&#xe805;" d="M243 403h-12c-11 0-20-8-20-19 0-11 9-20 20-20h12v-12c0-10 8-19 19-19 11 0 20 9 20 19v12h12c10 0 19 9 19 20 0 11-9 19-19 19h-12v12c0 11-9 20-20 20-11 0-19-9-19-20z m0 0m238 32c-10 0-19-9-19-20v-12h-12c-11 0-19-8-19-19 0-11 8-20 19-20h12v-12c0-10 9-19 19-19s20 9 20 19v12h12c11 0 19 9 19 20 0 11-8 19-19 19h-12v12c0 11-9 20-20 20z m0 0m521 177l-20 219c-1 10-9 18-19 18h-219c-10 0-19-8-20-18l-19-219c-1-5 1-11 5-15 3-4 9-6 14-6h39v-134c0-11 9-20 20-20s19 9 19 20v134h32v-705h-39c-11 0-20-9-20-19s9-20 20-20h117c11 0 20 9 20 20s-9 19-20 19h-39v705h109c6 0 11 2 15 6 4 4 5 10 5 15z m-57 198l6-71h-196l7 71z m-199-180l6 70h203l6-70z m0 0m-461-78h0c11 0 20 8 20 19s-9 20-20 20h0c-11 0-20-9-20-20s9-19 20-19z m0 0m368-208c-2 0-3 0-4 0v113c0 74-60 134-134 134h-151c-11 0-20-9-20-20s9-19 20-19h151c52 0 95-43 95-95v-123c-29-15-49-46-49-81v-28c-61 17-125 25-189 25s-128-8-190-25v28c1 24-9 47-26 64-6 7-14 12-22 17v123c0 52 42 95 95 95 10 0 19 8 19 19s-9 20-19 20c-74 0-134-60-134-134v-113c-2 0-3 0-4 0-50 0-91-40-91-91 0-31 16-60 42-77l2-1c16-10 23-14 25-19 3-6 3-20 3-44l0-138c0-20 11-37 28-45v-41c0-37 28-41 40-41 10 0 22 0 31 8 9 7 12 18 15 29l11 41h350l11-41c2-11 5-22 15-29 9-8 20-8 31-8 12 0 39 4 39 41v41c17 8 29 25 29 45l0 138c0 24 0 38 3 44 2 5 9 9 25 19l1 1c27 17 43 46 43 77 0 51-41 91-91 91z m-505-450c0-1-1-5-2-8-2 0-5 0-7 0 0 1 0 1 0 2v37h18z m456-8c-1 0-4 0-6 0-1 3-2 7-3 8l-8 31h17v-37c0-1 0-1 0-2z m76 323l-1-1c-20-12-33-20-40-36-6-13-6-29-6-60v-139c0-4-4-9-9-9h-504c-5 0-9 5-9 9l0 139c0 31 0 47-7 60-7 16-19 24-39 36l-2 1c-15 10-24 26-24 44 0 29 24 52 52 52 14 0 28-5 37-15 10-10 15-23 15-37v0-129c0-26 22-48 48-48h226c11 0 20 9 20 20 0 11-9 19-20 19h-226c-4 0-9 5-9 9v61c62 17 126 26 190 26s128-9 189-26v-61c0-4-4-9-9-9-11 0-19-8-19-19 0-11 8-20 19-20 27 0 48 22 48 48v129c0 29 24 52 53 52 28 0 52-23 52-52 0-18-9-34-25-44z m0 0m-206-94h0c-11 0-20-8-20-19 0-11 9-20 20-20h0c11 0 20 9 20 20 0 11-9 19-20 19z m0 0" horiz-adv-x="1000" />

<glyph glyph-name="home-ceiling-lamp" unicode="&#xe806;" d="M882 292h-40v46c0 75-30 146-83 199-42 42-95 69-153 78v81c0 11-9 19-19 20l-67 0v115c0 10-9 19-20 19s-19-9-19-19v-115l-67 0h0c-5 0-10-2-14-5-3-4-5-9-5-14v-82c-58-9-112-36-154-78-53-53-82-124-82-199v-46h-41c-11 0-19-8-19-19v-96c0-10 8-19 19-19h196c-2-9-2-17-2-26 0-104 84-188 188-188 106 0 188 83 188 188 0 9 0 17-1 26h195c11 0 19 9 19 19v96c0 11-8 19-19 19z m-448 385l133 0v-58c-2 0-5 0-7 0h-120c-2 0-4 0-6 0v58z m-236-339c0 133 108 242 242 242h120c134 0 243-109 243-242v-46h-605z m302-355c-82 0-149 67-149 149 0 9 1 17 2 26h294c1-9 2-17 2-26 0-83-65-149-149-149z m362 214h-724v56h724v-56z m-362-278c-11 0-19-9-19-20v-30c0-10 8-19 19-19s20 9 20 19v30c0 11-9 20-20 20z m188 49c-7 7-20 7-27 0s-8-20 0-28l21-21c4-4 9-6 14-6 5 0 10 2 13 6 8 8 8 20 0 28z m-376 0l-21-21c-8-8-8-20 0-28 4-4 9-6 14-6 5 0 10 2 13 6l21 21c8 8 8 20 0 28-7 7-20 7-27 0z" horiz-adv-x="1000" />

<glyph glyph-name="home-desktop" unicode="&#xe807;" d="M969 444h-47v203a16 16 0 0 1-16 16h-187a16 16 0 0 1-16-16v-203h-284l-8 31h112a55 55 0 0 1 55 55v203a55 55 0 0 1-55 55h-390a55 55 0 0 1-55-55v-203a55 55 0 0 1 55-55h113l-8-31h-207a16 16 0 0 1-15-16v-500a16 16 0 0 1 15-16h47a16 16 0 0 1 16 16v297h484v-297a16 16 0 0 1 16-16h47a16 16 0 0 1 15 16v47h250v-47a16 16 0 0 1 16-16h47a16 16 0 0 1 15 16v500a16 16 0 0 1-15 16z m-141 187h63v-187h-63z m-94 0h63v-187h-63z m-625 102a24 24 0 0 0 24 23h390a24 24 0 0 0 24-23v-180h-438z m24-227a24 24 0 0 0-22 16h435a24 24 0 0 0-23-16z m253-62h-116l8 31h100z m-323-500h-16v406h16z m515 312h-484v94h484z m47-312h-16v406h16z m281 62h-250v94h250z m0 125h-250v94h250z m0 125h-250v94h250z m47-312h-15v406h15z m0 437h-906v32h906z m-219-93h94a16 16 0 0 1 0 31h-94a16 16 0 0 1 0-31z m94-94h-94a16 16 0 0 1 0-31h94a16 16 0 0 1 0 31z m0-125h-94a16 16 0 0 1 0-31h94a16 16 0 0 1 0 31z m-453 250h-94a16 16 0 0 1 0-31h94a16 16 0 0 1 0 31z" horiz-adv-x="1000" />

<glyph glyph-name="home-bedroom" unicode="&#xe808;" d="M867 83c9 0 16 8 16 17v117h34c9 0 16 7 16 16s-7 17-16 17h-100v267c0 9-8 16-17 16h-600c-9 0-17-7-17-16s8-17 17-17h583v-167c-14 11-32 17-50 17h-16v17c0 27-23 50-50 50h-100c-28 0-50-23-50-50v-17h-34v17c0 27-22 50-50 50h-100c-27 0-50-23-50-50v-17h-16c-46 0-84-37-84-83v-17h-100c-9 0-16-7-16-17s7-16 16-16h34v-117c0-9 7-17 16-17h50v-50c0-9 8-16 17-16h67c9 0 16 7 16 16v50h267c9 0 17 8 17 17s-8 17-17 17h-400v100h700v-100h-233c-9 0-17-8-17-17s8-17 17-17h100v-50c0-9 7-16 16-16h67c9 0 17 7 17 16v50z m-617 0v-33h-33v33z m300 284c0 9 8 16 17 16h100c9 0 16-7 16-16v-17h-133z m-233 0c0 9 7 16 16 16h100c10 0 17-7 17-16v-17h-133z m-100-100c0 27 22 50 50 50h466c28 0 50-23 50-50v-17h-566z m566-217h-33v33h33z m0 0m-283 567c64 0 117 52 117 116s-53 117-117 117-117-52-117-117 53-116 117-116z m0 200c46 0 83-38 83-84s-37-83-83-83-83 37-83 83 37 84 83 84z m0 0m0-100h33c10 0 17 7 17 16s-7 17-17 17h-16v17c0 9-8 16-17 16s-17-7-17-16v-34c0-9 8-16 17-16z m0 0m483-400h-13l13 80c1 5 0 10-3 14-4 4-8 6-13 6h-100c-5 0-10-2-13-6-3-4-5-9-4-14l14-80c-8-2-14-9-14-17 0-9 8-17 17-17h100v-100h-34c-9 0-16-7-16-16s7-17 16-17h34v-100h-100c-9 0-17-7-17-17s8-16 17-16h116c10 0 17 7 17 16v267c0 9-7 17-17 17z m-85 0l-12 66h61l-11-66z m0 0m-765-267h-100v100h34c9 0 16 8 16 17s-7 16-16 16h-34v100h100c10 0 17 8 17 17s-7 17-17 17h-16v66h66c6 0 11 3 14 8 3 5 4 10 2 16l-50 116c-3 6-9 10-16 10h-66c-7 0-13-4-16-10l-50-116c-2-6-1-11 2-16 3-5 8-8 14-8h66v-66h-66c-9 0-17-8-17-17v-267c0-9 8-16 17-16h116c10 0 17 7 17 16s-7 17-17 17z m-55 450h44l36-83h-117z m0 0" horiz-adv-x="1000" />

<glyph glyph-name="living-room2" unicode="&#xe809;" d="M950 267h-50v166c0 46-37 84-83 84h-267c-46 0-83-38-83-84v-166h-50c-28 0-50-23-50-50v-167c0-44 34-80 78-83l-24-84h-156c-8 39-42 67-82 67h-33v767c0 52 40 96 92 99s98-33 106-85l0-2c-21-8-34-31-30-54l5-27-45-76c-6-11-6-23 0-34 6-10 17-16 29-17 2 0 3 1 5 1l160 27c13 2 23 11 27 24 3 12-1 26-11 34l-67 58-4 27c-4 18-17 34-35 39l-1 5c-10 69-72 119-141 114s-123-63-123-133v-767h-34v17c0 9-7 16-16 16-9 0-17-7-17-16v-24c-30-13-50-43-50-76 0-10 8-17 17-17h966c10 0 17 7 17 17 0 9-7 16-17 16h-37l-24 84c44 3 78 39 78 83v167c0 27-22 50-50 50z m-483 315l-160-27 43 75 51 8 66-56z m-80 88l-33-6-3 17c-2 9 4 17 14 19 0 0 1 0 2 0 8 0 15-6 17-14z m163-187h267c27 0 50-22 50-50v-169c-20-7-34-26-34-47v-34c-14 11-32 17-50 17h-59l38 38c6 7 6 17 0 24-7 6-17 6-24 0l-38-38v76c0 9-7 17-17 17s-16-8-16-17v-76l-38 38c-7 6-17 6-24 0-6-7-6-17 0-24l38-38h-60c-18 0-35-6-50-17v34c0 21-13 40-33 47v169c0 28 22 50 50 50z m233-316c28 0 50-23 50-50v-17h-300v17c0 27 23 50 50 50z m24-200l48-84h-343l48 84z m26 33h-300v67h300z m-433 50v167c0 9 8 16 17 16h66c10 0 17-7 17-16v-217h-50c-28 0-50 22-50 50z m-364-167c7 20 26 34 47 34h100c22 0 40-14 48-34z m419 0l24 84h42l-47-84z m438 0l-48 84h42l24-84z m74 167c0-28-23-50-50-50h-50v217c0 9 7 16 16 16h67c9 0 17-7 17-16z m0 0" horiz-adv-x="1000" />

<glyph glyph-name="home-living-room" unicode="&#xe80a;" d="M265 150c-3 3-9 6-14 6-5 0-10-3-13-6-4-4-6-9-6-14s2-10 6-14c3-3 8-5 13-5 5 0 11 2 14 5 4 4 6 9 6 14s-2 10-6 14z m177 0c-3 3-8 6-14 6-5 0-10-3-13-6s-6-9-6-14 2-10 6-14c3-3 8-5 13-5 6 0 11 2 14 5 4 4 6 9 6 14s-2 10-6 14z m479 0c-3 3-8 6-14 6-5 0-10-3-13-6s-6-9-6-14 2-10 6-14c3-3 8-5 13-5 6 0 11 2 14 5 4 4 6 9 6 14s-2 10-6 14z m-69 512c-4 4-9 6-14 6-5 0-10-2-14-6-3-4-5-9-5-14 0-5 2-10 5-14 4-3 9-5 14-5 5 0 10 2 14 5 4 4 6 9 6 14 0 5-2 10-6 14z m-146 53c-8 8-20 8-28 0l-147-148c-8-7-8-20 0-27 3-4 8-6 13-6s10 2 14 6l148 147c7 8 7 20 0 28z m-412-88h-24c0 1 0 1 0 1v182c0 22-18 40-40 40h-53c-22 0-40-18-40-40v-19c-1 0-1 0-1 0h-53c-22 0-40-18-40-40v-123c0 0 0 0 0-1h-23c-11 0-20-8-20-19s9-20 20-20h63 53 41 53 64c11 0 20 9 20 20s-9 19-20 19z m-157 1c0 0-1-1-1-1h-53c0 0-1 1-1 1v123c0 0 1 1 1 1h53c0 0 1-1 1-1v-123z m94 0c0 0-1-1-1-1h-53c-1 0-1 1-1 1v123 59c0 1 0 1 1 1h53c0 0 1 0 1-1v-182z m718-223c28 0 51 23 51 51v265c0 28-23 51-51 51h-500c-28 0-51-23-51-51v-265c0-28 23-51 51-51h186v-35c0-29-24-53-54-53h-346c12 16 20 37 20 59v47c0 11-9 19-20 19h-44c0 3 0 5-1 8 14 2 31 7 43 20 24 24 22 63 21 68 0 5-2 9-5 13-4 3-8 5-13 5-8 1-46 4-69-20-7-7-12-15-15-23-27 16-59 14-66 14-4-1-9-2-12-6-4-3-6-8-6-12-1-8-3-40 12-67h-1c-11 0-20-8-20-19v-47c0-22 8-43 20-59h-59c-11 0-20-9-20-20v-312c0-11 9-20 20-20h139l-25-90c-1-6 0-13 4-17 3-5 9-8 15-8h86c7 0 14 4 18 11l50 104h386l51-104c3-7 10-11 17-11h86c6 0 12 3 16 8 3 4 4 11 3 17l-25 90h140c10 0 19 9 19 20v312c0 11-9 20-19 20h-164c-29 0-53 24-53 53v35h185z m-754 103c4 5 12 8 19 9-1-7-4-14-9-19-4-5-12-8-19-9 1 7 4 15 9 19z m-56-34c8-7 11-20 13-31-11 1-24 4-33 12-8 8-11 21-12 32 11-1 24-5 32-13z m-41-71h59c1 0 3 0 4 0 1 0 2 0 4 0h51v-27c0-32-27-59-59-59s-59 27-59 59v27z m129-514h-48l20 76h64l-36-76z m93 115h-281v274h281v-274z m321 0h-282v274h282v-274z m19 313c-1 0-2 0-3 0 11 15 17 33 17 53v35h51v-35c0-20 6-38 17-53h-77c-2 0-3 0-5 0z m113-428l-36 76h64l20-76h-48z m188 389v-274h-281v113h153c11 0 19 8 19 19s-8 20-19 20h-153v122h281z m-300 166l137 136c7 8 7 20 0 28-8 7-20 7-28 0l-163-163c0 0 0-1-1-1h-157c-6 0-11 5-11 12v265c0 7 5 12 11 12h500c7 0 12-5 12-12v-265c0-7-5-12-12-12h-288z" horiz-adv-x="1000" />

<glyph glyph-name="home-kitchen-full" unicode="&#xe80b;" d="M766 303a16 16 0 0 1 15 16v31a16 16 0 0 1-31 0v-31a16 16 0 0 1 16-16z m0-94a16 16 0 0 1-16-15v-31a16 16 0 0 1 31 0v31a16 16 0 0 1-15 15z m-52-276a47 47 0 0 1 20-5h188a47 47 0 0 1 47 47v406a47 47 0 0 1-47 47h-188a47 47 0 0 1-46-47v-78h-32v31a16 16 0 0 1-15 16h-94a16 16 0 0 1-16-16v-31h-31v31a16 16 0 0 1-5 11 47 47 0 0 1 5 21h31a16 16 0 0 1 0 31h-31a16 16 0 0 1-16 16h-93a16 16 0 0 1-16-16v-31a47 47 0 0 1 5-21 16 16 0 0 1-5-11v-31h-78v31h16a16 16 0 0 1 0 32h-16v15a47 47 0 0 1-94 0v-31a16 16 0 0 1 31 0v31a16 16 0 0 0 32 0v-78h-125v31a47 47 0 0 1-94 0v-31a16 16 0 0 1-16-15v-344a16 16 0 0 1 16-16h656a16 16 0 0 1 11 5z m208 26h-188a16 16 0 0 0-15 16v266h219v-266a16 16 0 0 0-16-16z m-203 422a16 16 0 0 0 15 16h188a16 16 0 0 0 16-16v-109h-219z m-94-109v-63h-219v63z m-219-94h219v-156h-219z m157 141h62v-16h-62z m-157-16v16h63v-16z m0 78h63v-15a16 16 0 0 0-16-16h-31a16 16 0 0 0-16 16z m-328-47a16 16 0 0 0 31 0v-31h-31z m610-375h-625v313h312v-266a16 16 0 0 1 16-15h250a16 16 0 0 1 15 15v266h32z m-141 188h-63a16 16 0 0 1 0-31h63a16 16 0 0 1 0 31z m-219-31h-219a16 16 0 0 1-15-16v-94a16 16 0 0 1 15-15h219a16 16 0 0 1 16 15v94a16 16 0 0 1-16 16z m-15-94h-188v62h188z m15 219h-219a16 16 0 0 1-15-16v-62a16 16 0 0 1 15-16h219a16 16 0 0 1 16 16v62a16 16 0 0 1-16 16z m-15-63h-188v31h188z m312 469a16 16 0 0 1 16 16v31a16 16 0 0 1-32 0v-31a16 16 0 0 1 16-16z m188 0a16 16 0 0 1 15 16v31a16 16 0 0 1-31 0v-31a16 16 0 0 1 16-16z m-766 31h141v-62h-16a16 16 0 0 1-14-9l-47-94a16 16 0 0 1 14-22h156a16 16 0 0 1 14 22l-47 94a16 16 0 0 1-14 9h-15v62h203v-62h-16a16 16 0 0 1-14-9l-47-94a16 16 0 0 1 14-22h157a16 16 0 0 1 14 22l-47 94a16 16 0 0 1-14 9h-16v62h110v-125a16 16 0 0 1 15-15h375a16 16 0 0 1 16 15v203a16 16 0 0 1-16 16h-906a16 16 0 0 1-16-16v-62a16 16 0 0 1 16-16z m209-156h-106l32 62h43z m234 0h-105l31 62h43z m104 219h140v-125h-140v125z m344-172h-344v15h344z m0 47h-172v125h172z m-875 125h500v-32h-500z" horiz-adv-x="1000" />

<glyph glyph-name="sink-long" unicode="&#xe80d;" d="M813 350h-21v396c0 57-47 104-104 104h-375c-58 0-105-47-105-104v-396h-20c-12 0-21-9-21-21s9-21 21-21h20v-396c0-11 10-20 21-20h21v-21c0-12 9-21 21-21s21 9 21 21v21h458v-21c0-12 9-21 21-21s21 9 21 21v41 396h21c11 0 20 10 20 21s-9 21-20 21z m-63-417h-500v167h500v-167z m0 209h-500v166h500v-166z m0 208h-208v42h21c11 0 20 9 20 21s-9 20-20 20h-21v63c0 34-28 62-63 62-34 0-62-28-62-62 0-12 9-21 21-21s20 9 20 21 10 21 21 21 21-10 21-21v-63h-21c-11 0-21-9-21-20s10-21 21-21h21v-42h-250v396c0 34 28 62 63 62h375c34 0 62-28 62-62v-396z m-339 411c-9 8-22 8-30 0l-83-84c-8-8-8-21 0-29 4-4 9-6 15-6s10 2 14 6l84 83c8 8 8 21 0 30z m83-42c-8 8-21 8-30 0l-166-167c-8-8-8-21 0-29 4-4 9-6 15-6s10 2 14 6l167 166c8 9 8 22 0 30z m27-452h-42c-11 0-21-10-21-21s10-21 21-21h42c11 0 21 9 21 21s-10 21-21 21z m0-209h-42c-11 0-21-9-21-20 0-12 10-21 21-21h42c11 0 21 9 21 21 0 11-10 20-21 20z" horiz-adv-x="1000" />

<glyph glyph-name="wardrobe-long" unicode="&#xe80e;" d="M750 850h-500c-57 0-104-47-104-104v-834c0-11 9-20 21-20h21v-21c0-12 9-21 20-21s21 9 21 21v21h542v-21c0-12 9-21 21-21 11 0 21 9 21 21v21h20c12 0 21 9 21 20v834c0 57-47 104-104 104z m-271-917h-291v813c0 34 28 62 62 62h229v-875z m334 0h-292v875h229c35 0 63-28 63-62v-813z m-396 500c-12 0-21-9-21-20v-42c0-12 9-21 21-21s21 9 21 21v42c0 11-10 20-21 20z m166 0c-11 0-20-9-20-20v-42c0-12 9-21 20-21s21 9 21 21v42c0 11-9 20-21 20z" horiz-adv-x="1000" />

<glyph glyph-name="wardrobe" unicode="&#xe80f;" d="M750 850h-500c-57 0-104-47-104-104v-834c0-11 9-20 21-20h21v-21c0-12 9-21 20-21s21 9 21 21v21h542v-21c0-12 9-21 21-21 11 0 21 9 21 21v21h20c12 0 21 9 21 20v834c0 57-46 104-104 104z m-271-917h-291v813c0 34 28 62 62 62h229v-875z m334 0h-292v875h229c35 0 63-28 63-62v-813z m-230 500c-11 0-20-9-20-20v-42c0-12 9-21 20-21s21 9 21 21v42c0 11-9 20-21 20z m-235 244c-8 8-21 8-29 0l-84-83c-8-8-8-21 0-30 4-4 10-6 15-6s11 2 15 6l83 84c8 8 8 21 0 29z m83-41c-8 8-21 8-29 0l-167-167c-8-8-8-21 0-30 4-4 10-6 15-6s11 2 15 6l166 167c9 8 9 21 0 30z m0-334c-8 8-21 8-29 0l-167-166c-8-9-8-22 0-30 4-4 10-6 15-6s11 2 15 6l166 167c9 8 9 21 0 29z m0-125c-8 8-21 8-29 0l-83-83c-8-8-8-21 0-30 4-4 9-6 14-6s11 2 15 6l83 84c9 8 9 21 0 29z" horiz-adv-x="1000" />

<glyph glyph-name="wardrobe-o" unicode="&#xe810;" d="M750 850h-500c-57 0-104-47-104-104v-834c0-11 9-20 21-20h21v-21c0-12 9-21 20-21s21 9 21 21v21h542v-21c0-12 9-21 21-21 11 0 21 9 21 21v21h20c12 0 21 9 21 20v834c0 57-47 104-104 104z m-271-917h-291v813c0 34 28 62 62 62h229v-875z m334 0h-292v250h292v-250z m0 292h-292v250h292v-250z m0 292h-292v291h229c35 0 63-28 63-62v-229z m-396-84c-12 0-21-9-21-20v-42c0-12 9-21 21-21s21 9 21 21v42c0 11-10 20-21 20z" horiz-adv-x="1000" />

<glyph glyph-name="wardrobe-wide" unicode="&#xe811;" d="M896 850h-792c-57 0-104-47-104-104v-834c0-11 9-20 21-20h21v-21c0-12 9-21 21-21s20 9 20 21v21h834v-21c0-12 9-21 21-21 11 0 20 9 20 21v21h21c12 0 21 9 21 20v834c0 57-47 104-104 104z m-563-917h-291v813c0 34 28 62 62 62h229v-875z m334 0h-292v875h292v-875z m291 0h-250v125h250v-125z m0 167h-250v125h250v-125z m0 167h-250v250h250v-250z m0 291h-250v250h188c34 0 62-28 62-62v-188z m-687-125c-12 0-21-9-21-20v-42c0-12 9-21 21-21s21 9 21 21v42c0 11-10 20-21 20z m167 0c-12 0-21-9-21-20v-42c0-12 9-21 21-21s20 9 20 21v42c0 11-9 20-20 20z m416-250h-41c-12 0-21-9-21-20 0-12 9-21 21-21h41c12 0 21 9 21 21 0 11-9 20-21 20z m0-166h-41c-12 0-21-10-21-21 0-12 9-21 21-21h41c12 0 21 9 21 21 0 11-9 21-21 21z" horiz-adv-x="1000" />

<glyph glyph-name="cabinet-with-mirror" unicode="&#xe812;" d="M875 350h-271v42h229c12 0 21 9 21 21v416c0 12-9 21-21 21h-666c-12 0-21-9-21-21v-416c0-12 9-21 21-21h229v-42h-271c-57 0-104-47-104-104v-167c0-57 47-104 104-104h13l-33-98c-3-11 3-22 13-26 3-1 5-1 7-1 9 0 17 5 20 14l37 111h636l37-111c3-9 11-14 20-14 2 0 4 0 7 1 11 4 16 15 13 26l-33 98h13c57 0 104 47 104 104v167c0 57-47 104-104 104z m-687 83v375h625v-375h-625z m375-41v-42h-125v42h125z m375-313c0-34-28-62-63-62h-750c-34 0-62 28-62 62v63h875v-63z m0 104h-875v63c0 34 28 62 62 62h750c35 0 63-28 63-62v-63z" horiz-adv-x="1000" />

<glyph glyph-name="cabinet-mirror" unicode="&#xe813;" d="M958 350h-354v42h229c12 0 21 9 21 21v416c0 12-9 21-21 21h-666c-12 0-21-9-21-21v-416c0-12 9-21 21-21h229v-42h-354c-12 0-21-9-21-21v-417c0-11 9-20 21-20h21v-21c0-12 9-21 20-21s21 9 21 21v21h792v-21c0-12 9-21 21-21 11 0 21 9 21 21v21h20c12 0 21 9 21 20v417c0 12-9 21-21 21z m-770 83v375h625v-375h-625z m375-41v-42h-125v42h125z m-84-459h-416v167h416v-167z m0 209h-416v166h416v-166z m459-209h-417v375h417v-375z m-646 334h-42c-11 0-21-10-21-21s10-21 21-21h42c11 0 21 9 21 21s-10 21-21 21z m0-209h-42c-11 0-21-9-21-20 0-12 10-21 21-21h42c11 0 21 9 21 21 0 11-10 20-21 20z m291 167c-11 0-20-9-20-21v-41c0-12 9-21 20-21s21 9 21 21v41c0 12-9 21-21 21z" horiz-adv-x="1000" />

<glyph glyph-name="table" unicode="&#xe815;" d="M966 659c-7 27-32 45-60 45h-812c-28 0-53-18-60-45-23-77-34-125-34-142 0-35 19-104 63-104 0 0 0 0 0 0 7 0 14 0 20 1v-397c0-12 10-21 21-21h84c11 0 20 9 20 21v187h584v-187c0-12 9-21 21-21h83c11 0 21 9 21 21v397c6-1 13-1 21-1 43 0 62 69 62 104 0 17-11 64-34 142z m-799-621h-42v385c16 6 30 14 42 22v-407z m625 437v-229h-584v229c0 0 0 0 0 0 19 12 40 21 73 21 48 0 71-17 97-38 29-21 61-45 122-45 62 0 94 24 122 45 27 21 49 38 97 38 33 0 54-9 73-21 0 0 0 0 0 0z m83-437h-42v407c12-8 26-16 42-22v-385z m63 416c0 0-1 0-1 0-47 0-70 18-96 38-28 21-60 46-122 46-62 0-94-25-122-46-26-20-49-38-97-38-47 0-70 18-97 38-28 21-60 46-122 46-61 0-93-25-122-46-26-20-49-38-96-38-8 4-21 38-21 63 0 9 8 49 32 131 2 9 10 15 20 15h812c10 0 18-6 20-15 24-82 32-122 32-131 0-25-13-60-20-63z" horiz-adv-x="1000" />

<glyph glyph-name="table-old" unicode="&#xe816;" d="M848 741h-696c-84 0-152-68-152-152 0-12 10-22 22-22h372l41-370c-26-20-44-51-44-86v-22h-108c-60 0-109-49-109-109 0-12 10-21 22-21h608c12 0 22 9 22 21 0 60-49 109-109 109h-108v22c0 35-17 66-44 86l41 370h372c12 0 22 10 22 22 0 84-68 152-152 152z m-261-695h130c29 0 53-18 62-44h-558c9 26 33 44 62 44h130 174z m-87 130c36 0 65-29 65-65v-22h-130v22c0 36 29 65 65 65z m-63 391h126l-39-350c-8 2-16 3-24 3-8 0-16-1-24-3l-39 350z m-391 44c10 49 54 87 106 87h696c52 0 96-38 106-87h-908z" horiz-adv-x="1000" />

<glyph glyph-name="armchair-old" unicode="&#xe817;" d="M899 308c56 2 101 48 101 105 0 57-47 104-104 104-7 0-14-1-21-2v64c0 104-84 188-187 188h-375c-104 0-188-84-188-188v-64c-7 1-14 2-21 2-57 0-104-47-104-104 0-57 45-103 101-105 5-3 17-18 22-44-46-11-81-52-81-101 0-51 36-93 83-102v-65c0-35 28-63 63-63h41c35 0 63 28 63 63v62h416v-62c0-35 28-63 63-63h42c34 0 62 28 62 63v65c48 9 83 51 83 102 0 49-34 90-81 101 5 26 17 41 22 44z m-732 271c0 81 65 146 146 146h375c80 0 145-65 145-146v-80c-71-40-117-146-124-232h-418c-7 86-52 192-124 232v80z m-63-229c-34 0-62 28-62 63s28 62 62 62c79 0 137-118 145-208h-84c-7 51-39 83-61 83z m146-354c0-12-9-21-21-21h-41c-12 0-21 9-21 21v62h83v-62z m583 0c0-12-9-21-20-21h-42c-12 0-21 9-21 21v62h83v-62z m84 167c0-35-28-63-63-63h-708c-35 0-63 28-63 63 0 34 28 62 63 62h125 458 125c35 0 63-28 63-62z m-82 104h-84c8 90 66 208 145 208 34 0 62-28 62-62s-28-63-62-63c-22 0-54-32-61-83z m-439 250c-3 0-7 2-11 5 18 20 32 43 32 57 0 12-10 22-21 22s-21-9-21-21c-1-6-10-18-21-30-11 12-19 23-21 29 0 12-9 21-20 21s-21-9-21-21c0-14 13-37 31-57-4-3-8-5-11-5-11 0-20-10-20-21 0-12 9-21 21-21 12 0 26 8 41 19 15-11 30-19 42-19 11 0 21 9 21 21 0 11-9 21-21 21z m292 0c-3 0-7 2-11 5 18 20 31 43 31 57 0 12-9 22-20 22s-21-9-21-21c-1-6-10-18-21-30-11 12-20 23-21 29 0 12-9 21-21 21s-21-9-21-21c0-14 14-37 32-57-4-3-8-5-11-5-11 0-21-10-21-21 0-12 10-21 21-21 12 0 27 8 42 19 15-11 30-19 42-19 11 0 21 9 21 21 0 11-10 21-21 21z" horiz-adv-x="1000" />

<glyph glyph-name="armchair-modern" unicode="&#xe819;" d="M938 558h-21v105c0 57-47 104-104 104h-625c-58 0-105-47-105-104v-105h-20c-35 0-63-28-63-62v-417c0-34 28-62 63-62h20v-63c0-11 10-21 21-21h167c11 0 21 10 21 21v63h416v-63c0-11 10-21 21-21h167c11 0 21 10 21 21v63h21c34 0 62 28 62 62v417c0 34-28 62-62 62z m-813 105c0 34 28 62 63 62h625c34 0 62-28 62-62v-105h-21c-34 0-62-28-62-62v-146h-584v146c0 34-28 62-62 62h-21v105z m667-355v-83h-584v83h584z m-542-333h-125v42h125v-42z m625 0h-125v42h125v-42z m83 104c0-11-9-21-20-21h-42-167-458-167-41c-12 0-21 10-21 21v417c0 11 9 21 21 21h83c11 0 21-10 21-21v-167-125c0-11 9-21 21-21h625c11 0 20 10 20 21v125 167c0 11 10 21 21 21h84c11 0 20-10 20-21v-417z" horiz-adv-x="1000" />

<glyph glyph-name="desk-with-computer" unicode="&#xe81c;" d="M979 413h-312v41h229c11 0 21 10 21 21v333c0 12-10 21-21 21h-500c-12 0-21-9-21-21v-333c0-11 9-21 21-21h229v-41h-604c-12 0-21-10-21-21s9-21 21-21h21v-479c0-12 9-21 21-21s20 9 20 21v354h42v-354c0-12 9-21 21-21h208c12 0 21 9 21 21v354h542v-354c0-12 9-21 21-21 11 0 20 9 20 21v479h21c12 0 21 9 21 21s-9 21-21 21z m-562 83v292h458v-292h-458z m-84-584h-166v84h166v-84z m0 126h-166v83h166v-83z m0 125h-166v83h166v-83z m584 125h-563-208-63v83h834v-83z" horiz-adv-x="1000" />

<glyph glyph-name="desk" unicode="&#xe81d;" d="M979 392h-778l-84 185c5 6 8 14 8 23 0 0 0 0 0 0l180 105-12-36c-2-6-1-13 3-19 4-5 10-8 17-8h166c7 0 13 3 17 8 4 6 5 13 3 19l-41 122c-2 33-29 59-62 59s-61-26-62-59l-9-27c-1 0-2 0-2 0l-220-128c-6 3-12 6-20 6-23 0-41-19-41-42 0-21 16-39 37-41l76-167h-134c-12 0-21-10-21-21v-500c0-12 9-21 21-21s21 9 21 21v312h541v-312c0-12 10-21 21-21h375c12 0 21 9 21 21v500c0 11-9 21-21 21z m-605 389c1 2 1 4 1 6 0 12 9 21 21 21s21-9 21-21c0-2 0-4 1-6l32-98h-109l33 98z m209-556h-541v125h541v-125z m375-333h-333v125h333v-125z m0 166h-333v125h333v-125z m0 167h-333v125h333v-125z m-145 83h-42c-12 0-21-9-21-20s9-21 21-21h42c11 0 20 9 20 21s-9 20-20 20z m0-166h-42c-12 0-21-10-21-21s9-21 21-21h42c11 0 20 9 20 21s-9 21-20 21z m0-167h-42c-12 0-21-9-21-21 0-11 9-21 21-21h42c11 0 20 10 20 21 0 12-9 21-20 21z" horiz-adv-x="1000" />

<glyph glyph-name="office-chair" unicode="&#xe81e;" d="M875 475h-83c-12 0-21-9-21-21s9-21 21-21h21v-145c0-31-18-58-43-77 0 5 1 9 1 14 0 46-37 83-83 83h-84v89c111 15 125 60 125 141 0 81-42 312-229 312s-229-231-229-312c0-81 14-126 125-141v-89h-83c-46 0-84-37-84-83 0-5 1-9 2-14-26 19-43 46-43 77v145h20c12 0 21 10 21 21s-9 21-21 21h-83c-11 0-21-9-21-21s10-21 21-21h21v-145c0-86 88-146 167-146h125v-167h-146c-35 0-63-28-63-63 0-34 28-62 63-62 34 0 62 28 62 62 0 8-1 15-4 21h91c-2-6-3-13-3-21 0-34 28-62 62-62s63 28 63 62c0 8-2 15-4 21h91c-3-6-4-13-4-21 0-34 28-62 62-62s63 28 63 62c0 35-28 63-63 63h-145v167h125c78 0 166 60 166 146v145h21c12 0 21 10 21 21s-9 21-21 21z m-583-583c-12 0-21 9-21 20 0 12 9 21 21 21s21-9 21-21c0-11-10-20-21-20z m416 41c12 0 21-9 21-21 0-11-9-20-21-20s-20 9-20 20c0 12 9 21 20 21z m-395 605c0 57 31 270 187 270s188-213 188-270c0-74 0-105-188-105s-187 31-187 105z m250-145v-85h-125v85c18-1 39-1 62-1 23 0 44 0 63 1z m-63-501c-11 0-21 9-21 20 0 12 10 21 21 21 12 0 21-9 21-21 0-11-9-20-21-20z m21 83h-42v167h42v-167z m167 208h-375c-23 0-42 19-42 42s19 42 42 42h375c23 0 41-19 41-42s-18-42-41-42z" horiz-adv-x="1000" />

<glyph glyph-name="mirror-rounded" unicode="&#xe81f;" d="M500 850c-207 0-375-224-375-500s168-500 375-500 375 224 375 500-168 500-375 500z m0-958c-184 0-333 205-333 458s149 458 333 458 333-205 333-458-149-458-333-458z m0 875c-158 0-292-191-292-417s134-417 292-417 292 191 292 417-134 417-292 417z m0-792c-135 0-250 172-250 375s115 375 250 375 250-172 250-375-114-375-250-375z m-48 619c-8 8-21 8-29 0l-84-83c-8-9-8-22 0-30 5-4 10-6 15-6 6 0 11 2 15 6l83 83c8 9 8 22 0 30z m125 0c-8 8-21 8-29 0l-209-208c-8-9-8-22 0-30 5-4 10-6 15-6 6 0 11 2 15 6l208 208c8 9 8 22 0 30z m84-375c-9 8-22 8-30 0l-83-83c-8-9-8-22 0-30 4-4 9-6 15-6s10 2 14 6l84 83c8 9 8 22 0 30z m0 125c-9 8-22 8-30 0l-208-208c-8-9-8-22 0-30 4-4 9-6 15-6s10 2 14 6l209 208c8 9 8 22 0 30z" horiz-adv-x="1000" />

<glyph glyph-name="mirror" unicode="&#xe820;" d="M771 850h-542c-57 0-104-47-104-104v-792c0-57 47-104 104-104h542c57 0 104 47 104 104v792c0 57-47 104-104 104z m62-896c0-34-28-62-62-62h-542c-34 0-62 28-62 62v792c0 34 28 62 62 62h542c34 0 62-28 62-62v-792z m-62 813h-542c-11 0-21-10-21-21v-792c0-11 10-21 21-21h542c11 0 21 10 21 21v792c0 11-10 21-21 21z m-21-792h-500v750h500v-750z m-48 161c-8 8-21 8-29 0l-84-84c-8-8-8-21 0-29 5-4 10-6 15-6 6 0 11 2 15 6l83 83c8 8 8 21 0 30z m0 125c-8 8-21 8-29 0l-167-167c-8-8-8-21 0-30 4-4 10-6 15-6 5 0 11 2 15 6l166 167c8 8 8 21 0 30z m-291 416c-9 8-22 8-30 0l-83-83c-8-8-8-21 0-30 4-4 9-6 15-6s10 2 14 6l84 84c8 8 8 21 0 29z m83-41c-8 8-21 8-30 0l-166-167c-8-8-8-21 0-30 4-4 9-6 15-6s10 2 14 6l167 167c8 8 8 21 0 30z" horiz-adv-x="1000" />

<glyph glyph-name="lamp-long" unicode="&#xe821;" d="M729 501l-84 333c-2 10-10 16-20 16h-250c-9 0-18-6-20-16l-83-333c-2-6-1-13 3-18 4-5 10-8 17-8h187v-500c-46-2-125-16-125-104 0-12 10-21 21-21h250c12 0 21 9 21 21 0 88-79 102-125 104v500h83v-170c-24-9-41-32-41-59 0-35 28-63 62-63 35 0 63 28 63 63 0 27-18 50-42 59v170h62c7 0 13 3 17 8 4 5 5 12 4 18z m-127-609h-204c8 25 33 41 102 41 69 0 94-16 102-41z m23 333c-11 0-21 9-21 21s10 21 21 21c12 0 21-10 21-21s-9-21-21-21z m-307 292l73 291h218l73-291h-364z" horiz-adv-x="1000" />

<glyph glyph-name="desk-lamp" unicode="&#xe822;" d="M813 351c-10 0-19-3-27-6 0 0 0 0 0 0l-227 226c61 66 60 168-4 232-63 63-173 63-236 0l-71-71c-32 6-68-4-93-29l-24-24c-9-9-9-22 0-30l62-62c-17-19-27-43-27-69 0-28 11-54 31-74 20-20 47-31 74-31 24 0 49 10 69 27l62-62c4-4 9-6 15-6 5 0 10 2 14 6l25 24c19 20 30 46 30 74 0 7 0 13-2 20l46 45 227-226c0 0 0 0 0 0-4-8-7-17-7-27 0-9 3-18 7-27l-249-207c-5-4-8-10-8-16v-63h-63c-57 0-104-47-104-104 0-12 9-21 21-21h334c11 0 21 9 21 21 0 57-47 104-105 104h-62v53l243 202c0 1 1 2 1 2 8-4 17-6 27-6 35 0 63 28 63 62 0 35-28 63-63 63z m-587 122c-12 12-18 28-18 45 0 14 5 28 14 39l88-87c-25-19-62-19-84 3z m200-41l-9-10-242 242 10 10c24 24 64 24 88 0l153-154c12-12 19-27 19-44s-7-32-19-44z m100 164l-59-59c-4 4-7 9-11 13l-153 153c-5 4-9 7-14 11l60 59c47 48 130 48 177 0 24-23 37-55 37-88 0-34-13-65-37-89z m78-663c28 0 51-17 59-41h-285c9 24 32 41 59 41h167z m209 334c-11 0-21 10-21 21s10 21 21 21c12 0 21-9 21-21s-9-21-21-21z" horiz-adv-x="1000" />

<glyph glyph-name="lamp" unicode="&#xe823;" d="M875 208l-125 625c-2 10-11 17-21 17h-458c-10 0-19-7-21-17l-125-625c-1-6 1-12 5-17s10-8 16-8h268c-16-105-42-199-61-208 0 0 0 0 0 0-57-1-103-47-103-104 0-12 9-21 21-21h500c11 0 21 9 21 21 0 57-46 103-103 104-18 8-45 103-61 208h122v-87c-24-8-42-31-42-58 0-35 28-63 63-63 34 0 62 28 62 63 0 27-17 50-41 58v87h62c6 0 12 3 16 8 4 5 6 11 5 17z m-187-275c27 0 50-17 59-41h-452c9 24 32 41 59 41h334z m-49 42h-236c26 48 42 131 53 208h130c10-77 27-160 53-208z m132 42c-12 0-21 9-21 21 0 11 9 20 21 20 11 0 21-9 21-20 0-12-10-21-21-21z m-600 208l117 583h424l117-583h-658z" horiz-adv-x="1000" />

<glyph glyph-name="bed-double" unicode="&#xe824;" d="M917 410v190c0 57-47 104-104 104h-625c-58 0-105-47-105-104v-190c-47-9-83-51-83-102v-125-83-83c0-12 9-21 21-21s21 9 21 21v62h916v-62c0-12 10-21 21-21 12 0 21 9 21 21v83 83 125c0 51-36 93-83 102z m-792 190c0 35 28 63 63 63h625c34 0 62-28 62-63v-187h-57c4 11 5 23 2 36l-21 83c-7 28-32 47-61 47h-134c-34 0-62-28-62-62v-84c0-7 1-14 4-20h-91c2 6 3 13 3 20v84c0 34-28 62-62 62h-134c-29 0-54-19-61-47l-21-83c-3-13-2-25 2-36h-57v187z m651-179c-4-6-10-8-17-8h-155c-11 0-21 9-21 20v84c0 11 10 21 21 21h134c10 0 18-7 21-16l20-84c2-6 1-12-3-17z m-359 96v-84c0-11-10-20-21-20h-155c-7 0-13 3-17 8s-5 11-3 17l21 84c2 9 10 16 20 16h134c11 0 21-10 21-21z m541-396h-916v42h916v-42z m0 83h-916v104c0 35 28 63 62 63h137 155 208 155 137c34 0 62-28 62-63v-104z" horiz-adv-x="1000" />

<glyph glyph-name="sofa-old" unicode="&#xe826;" d="M896 538c-7 0-14-1-21-3v23c0 58-47 105-104 105h-500c-50 0-146-41-146-105v-23c-7 2-14 3-21 3-57 0-104-47-104-105 0-34 16-64 42-83v0-292c0-11 9-20 21-20h125c11 0 20 9 20 20v21h584v-21c0-11 9-20 21-20h125c11 0 20 9 20 20v292c0 0 0 0 0 0 26 19 42 49 42 83 0 58-47 105-104 105z m-729-230v-83-125-21h-84v252c7-1 14-2 21-2 12 0 21 10 21 21s-9 21-21 21c-34 0-62 28-62 62 0 35 28 63 62 63 35 0 63-28 63-63v-125z m625-187h-584v83h584v-83z m0 125h-584v42h584v-42z m0 187v-104h-584v104c0 34-16 64-41 83 0 0 0 1 0 1v41c0 29 63 63 104 63h500c34 0 62-28 62-63v-41c0 0 0-1 0-1-25-19-41-49-41-83z m104-62c-12 0-21-9-21-21s9-21 21-21c7 0 14 1 21 2v-252h-84v21 125 83 125c0 35 28 63 63 63s62-28 62-63c0-34-28-62-62-62z" horiz-adv-x="1000" />

<glyph glyph-name="sofa" unicode="&#xe827;" d="M938 496h-21v104c0 35-28 63-63 63h-708c-35 0-63-28-63-63v-104h-20c-35 0-63-28-63-63v-250c0-34 28-62 63-62h20v-63c0-11 10-20 21-20h125c12 0 21 9 21 20v63h500v-63c0-11 9-20 21-20h125c11 0 21 9 21 20v63h21c34 0 62 28 62 62v250c0 35-28 63-62 63z m-813 104c0 12 9 21 21 21h708c12 0 21-9 21-21v-108c-24-9-42-31-42-59v-62h-666v62c0 28-18 50-42 59v108z m708-271v-41h-666v41h666z m-625-250h-83v42h83v-42z m667 0h-83v42h83v-42z m83 104c0-11-9-20-20-20h-42-125-542-125-41c-12 0-21 9-21 20v250c0 12 9 21 21 21h41c12 0 21-9 21-21v-83-83c0-12 9-21 21-21h708c12 0 21 9 21 21v83 83c0 12 9 21 21 21h42c11 0 20-9 20-21v-250z" horiz-adv-x="1000" />

<glyph glyph-name="closet" unicode="&#xe828;" d="M875 850h-750c-57 0-104-47-104-104v-834c0-11 9-20 21-20h21v-21c0-12 9-21 20-21s21 9 21 21v21h792v-21c0-12 9-21 21-21 11 0 21 9 21 21v21h20c12 0 21 9 21 20v834c0 57-46 104-104 104z m-396-917h-416v167h416v-167z m0 209h-416v166h416v-166z m459-209h-417v375h417v-375z m0 417h-875v208h875v-208z m0 250h-875v146c0 34 28 62 62 62h750c35 0 63-28 63-62v-146z m-646-333h-42c-11 0-21-10-21-21s10-21 21-21h42c11 0 21 9 21 21s-10 21-21 21z m0-209h-42c-11 0-21-9-21-20 0-12 10-21 21-21h42c11 0 21 9 21 21 0 11-10 20-21 20z m291 167c-11 0-20-9-20-21v-41c0-12 9-21 20-21s21 9 21 21v41c0 12-9 21-21 21z" horiz-adv-x="1000" />

<glyph glyph-name="chair-o" unicode="&#xe829;" d="M833 350h-104v167h21c35 0 63 28 63 62v125c0 35-28 63-63 63h-21v21c0 34-28 62-62 62-35 0-63-28-63-62v-21h-208v21c0 34-28 62-63 62-34 0-62-28-62-62v-21h-21c-34 0-62-28-62-63v-125c0-34 28-62 62-62h21v-167h-104c-12 0-21-9-21-21v-83c0-12 9-21 21-21h21v-354c0-12 9-21 20-21h84c11 0 21 9 21 21v187h375v-187c0-12 9-21 20-21h84c11 0 21 9 21 21v354h20c12 0 21 9 21 21v83c0 12-9 21-21 21z m-187 438c0 11 9 20 21 20 11 0 21-9 21-20v-21h-42v21z m-333 0c0 11 9 20 20 20 12 0 21-9 21-20v-21h-41v21z m-63-230c-11 0-21 10-21 21v125c0 12 10 21 21 21h42 83 250 83 42c12 0 21-9 21-21v-125c0-11-9-21-21-21h-42-83-250-83-42z m438-41v-167h-42v167h42z m-84 0v-167h-208v167h208z m-250 0v-167h-41v167h41z m-83-625h-42v333h42v-333z m417 208h-375v125h375v-125z m83-208h-42v333h42v-333z m42 375h-21-84-416-84-20v41h104 83 250 83 105v-41z" horiz-adv-x="1000" />

<glyph glyph-name="chair" unicode="&#xe82a;" d="M752 347l36 435c1 18-5 35-16 48-12 13-29 20-46 20-23 0-43-13-54-32-20 20-47 32-75 32h-194c-28 0-55-12-75-32-11 19-31 32-54 32h0c-17 0-34-7-46-20-11-13-17-30-16-47l36-436c-46-10-81-51-81-101v-42-83-250c0-12 9-21 21-21h83c11 0 21 9 21 21v229h416v-229c0-12 10-21 21-21h84c11 0 20 9 20 21v250 83 42c0 50-35 91-81 101z m-81 36l34 407c2 16 25 24 36 12 4-5 6-10 5-16l-36-436h-41l2 33z m-314 405c12 13 28 20 46 20h194c18 0 34-7 46-20 12-13 18-30 16-47l-32-391h-254l-32 391c-2 17 4 34 16 47z m-98 14c4 4 9 6 15 6h0c11 0 20-8 21-19l31-372 6-67h-42l-36 436c-1 6 1 12 5 16z m-9-910h-42v208h42v-208z m0 250h-42v41h42v-41z m458 0h-416v41h416v-41z m84-250h-42v208h42v-208z m0 250h-42v41h42v-41z m0 83h-63-458-63v21c0 34 28 62 63 62h83 292 83c35 0 63-28 63-62v-21z" horiz-adv-x="1000" />

<glyph glyph-name="file-long" unicode="&#xe82b;" d="M750 850h-500c-57 0-104-47-104-104v-834c0-11 9-20 21-20h21v-21c0-12 9-21 20-21s21 9 21 21v21h542v-21c0-12 9-21 21-21 11 0 21 9 21 21v21h20c12 0 21 9 21 20v834c0 57-46 104-104 104z m-271-917h-291v292h291v-292z m334 0h-292v292h292v-292z m0 334h-625v250h625v-250z m0 291h-625v188c0 34 28 62 62 62h500c35 0 63-28 63-62v-188z m-396-416c-12 0-21-10-21-21v-42c0-11 9-21 21-21s21 10 21 21v42c0 11-10 21-21 21z m166 0c-11 0-20-10-20-21v-42c0-11 9-21 20-21s21 10 21 21v42c0 11-9 21-21 21z" horiz-adv-x="1000" />

<glyph glyph-name="file" unicode="&#xe82c;" d="M978 850h-43-870-43c-12 0-22-10-22-22s10-21 22-21h22v-892-43c0-12 9-22 21-22s22 10 22 22v21h826v-21c0-12 10-22 22-22 12 0 22 10 22 22v43 892h21c12 0 22 9 22 21s-10 22-22 22z m-65-913h-826v261h826v-261z m0 304h-826v261h826v-261z m0 305h-826v261h826v-261z m-369-87h-44c-12 0-22-10-22-22s10-22 22-22h44c12 0 21 10 21 22s-9 22-21 22z m0 304h-44c-12 0-22-10-22-22s10-21 22-21h44c12 0 21 9 21 21s-9 22-21 22z m0-609h-44c-12 0-22-9-22-21s10-22 22-22h44c12 0 21 10 21 22s-9 21-21 21z" horiz-adv-x="1000" />

<glyph glyph-name="cabinet" unicode="&#xe82e;" d="M896 600h-792c-57 0-104-47-104-104v-333c0-12 9-21 21-21h21v-21c0-12 9-21 21-21s20 9 20 21v21h834v-21c0-12 9-21 21-21 11 0 20 9 20 21v21h21c12 0 21 9 21 21v333c0 57-47 104-104 104z m-438-417h-416v167h416v-167z m0 209h-416v104c0 34 28 62 62 62h354v-166z m500-209h-458v375h396c34 0 62-28 62-62v-313z m-687 334h-42c-11 0-21-10-21-21s10-21 21-21h42c11 0 21 9 21 21s-10 21-21 21z m0-209h-42c-11 0-21-9-21-20s10-21 21-21h42c11 0 21 9 21 21s-10 20-21 20z m292 167c-12 0-21-9-21-21v-41c0-12 9-21 21-21s20 9 20 21v41c0 12-9 21-20 21z" horiz-adv-x="1000" />

<glyph glyph-name="bench" unicode="&#xe82f;" d="M979 308h-104v84h63c11 0 20 9 20 21v125 125c0 11-9 20-20 20h-63v21c0 35-28 63-62 63-35 0-63-28-63-63v-21h-500v21c0 35-28 63-62 63-35 0-63-28-63-63v-21h-62c-12 0-21-9-21-20v-125-125c0-12 9-21 21-21h62v-84h-104c-12 0-21-9-21-20v-84c0-11 9-21 21-21h21v-229c0-11 9-21 21-21h83c11 0 21 10 21 21v229h666v-229c0-11 10-21 21-21h84c11 0 20 10 20 21v229h21c12 0 21 10 21 21v84c0 11-9 20-21 20z m-187 396c0 12 9 21 21 21 11 0 20-9 20-21v-21h-41v21z m-625 0c0 12 9 21 21 21 11 0 20-9 20-21v-21h-41v21z m-84-62h63 83 542 83 63v-84h-834v84z m0-209v84h834v-84h-63-83-542-83-63z m750-41v-84h-41v84h41z m-83 0v-84h-500v84h500z m-542 0v-84h-41v84h41z m-83-417h-42v208h42v-208z m792 0h-42v208h42v-208z m41 250h-20-84-708-83-21v42h104 83 542 83 104v-42z" horiz-adv-x="1000" />

<glyph glyph-name="bed" unicode="&#xe830;" d="M917 390v314c0 58-47 104-104 104h-625c-58 0-105-46-105-104v-314c-47-10-83-52-83-102v-167-125-84c0-11 9-20 21-20s21 9 21 20v63h916v-63c0-11 10-20 21-20 12 0 21 9 21 20v84 125 167c0 50-36 92-83 102z m-792 314c0 35 28 63 63 63h625c34 0 62-28 62-63v-312h-149c19 25 26 57 18 87l-20 84c-12 46-54 79-102 79h-244c-48 0-90-33-101-79l-21-84c-8-30-1-62 18-87h-149v312z m568-288c-12-16-30-24-50-24h-286c-20 0-38 8-49 24-12 15-17 35-12 53l21 84c7 28 32 47 61 47h245c28 0 53-19 60-47l21-84c5-18 1-38-11-53z m265-399h-916v83h916v-83z m0 125h-916v146c0 34 28 62 62 62h253 286 253c34 0 62-28 62-62v-146z" horiz-adv-x="1000" />

<glyph glyph-name="sink-wide" unicode="&#xe831;" d="M583 225c-11 0-20-9-20-21v-41c0-12 9-21 20-21s21 9 21 21v41c0 12-9 21-21 21z m-166 0c-12 0-21-9-21-21v-41c0-12 9-21 21-21s21 9 21 21v41c0 12-10 21-21 21z m541 125h-20v396c0 57-47 104-105 104h-666c-58 0-104-47-104-104v-396h-21c-12 0-21-9-21-21s9-21 21-21h21v-396c0-11 9-20 20-20h21v-21c0-12 10-21 21-21s21 9 21 21v21h750v-21c0-12 9-21 21-21 11 0 21 9 21 21v41 396h20c12 0 21 10 21 21s-9 21-21 21z m-479-417h-375v375h375v-375z m417 0h-375v375h375v-375z m0 417h-375v42h21c11 0 21 9 21 21s-10 20-21 20h-21v63c0 34-28 62-63 62-34 0-62-28-62-62 0-12 9-21 21-21s21 9 21 21 9 21 20 21c12 0 21-10 21-21v-63h-21c-11 0-20-9-20-20s9-21 20-21h21v-42h-375v396c0 34 28 62 63 62h666c35 0 63-28 63-62v-396z m-631 411c-8 8-22 8-30 0l-83-84c-8-8-8-21 0-29 4-4 9-6 15-6 5 0 10 2 14 6l84 83c8 8 8 21 0 30z m83-42c-8 8-21 8-29 0l-167-167c-8-8-8-21 0-29 4-4 9-6 15-6 5 0 10 2 14 6l167 166c8 9 8 22 0 30z m500-208c-8 8-21 8-29 0l-84-84c-8-8-8-21 0-29 4-4 10-6 15-6 5 0 11 2 15 6l83 83c8 8 8 21 0 30z m0 125c-8 8-21 8-29 0l-167-167c-8-8-8-21 0-30 4-4 9-6 15-6 5 0 10 2 14 6l167 167c8 8 8 21 0 30z" horiz-adv-x="1000" />

<glyph glyph-name="lamp-minimal" unicode="&#xe832;" d="M738 317c-75 75-172 118-276 125v379c0 16-13 29-29 29-17 0-30-13-30-29v-379c-104-7-201-50-276-125-81-81-126-190-126-305 0-17 13-30 30-30h247c14-75 80-132 159-132s145 57 159 132h239c16 0 29 13 29 30 0 115-45 224-126 305z m-301-408c-46 0-86 31-98 73h196c-12-42-52-73-98-73z m-376 132c15 192 176 343 372 343 195 0 356-151 371-343z m0 0" horiz-adv-x="1000" />

<glyph glyph-name="oil-heater" unicode="&#xe833;" d="M922 256v508c0 47-39 86-87 86-47 0-86-39-86-86v-3h-51v3c0 47-39 86-86 86-48 0-87-39-87-86v-3h-50v3c0 47-39 86-87 86-47 0-86-39-86-86v-3h-51v3c0 47-39 86-86 86-48 0-87-39-87-86v-55h-19v30c0 16-13 30-29 30-17 0-30-14-30-30v-120c0-17 13-30 30-30 16 0 29 13 29 30v30h19v-393c-45-13-78-55-78-104v-70c0-16 13-29 30-29 16 0 29 13 29 29v70c0 16 8 30 20 39 3-45 40-80 86-80 47 0 86 39 86 87v3h51v-3c0-48 39-87 86-87 48 0 87 39 87 87v3h50v-3c0-48 39-87 87-87 47 0 86 39 86 87v3h51v-3c0-48 39-87 86-87 46 0 83 35 87 80 11-9 19-23 19-39v-70c0-16 13-29 29-29s30 13 30 29v70c0 49-33 91-78 104z m-114-58v566c0 15 13 27 27 27 15 0 27-12 27-27v-566c0-15-12-27-27-27-14 0-27 12-27 27z m-196-27c-15 0-27 12-27 27v566c0 15 12 27 27 27 15 0 27-12 27-27v-566c0-15-12-27-27-27z m-224 0c-15 0-27 12-27 27v566c0 15 12 27 27 27 15 0 27-12 27-27v-566c0-15-12-27-27-27z m-250 27v566c0 15 12 27 27 27 15 0 27-12 27-27v-566c0-15-12-27-27-27-15 0-27 12-27 27z m113 62v441h51v-441z m224 0v441h50v-441z m223 0v441h51v-441z m0 0" horiz-adv-x="1000" />

<glyph glyph-name="rack" unicode="&#xe835;" d="M380-91h-92v241c0 36-22 66-53 78v232h36c17 0 30 13 30 29 0 17-13 30-30 30h-36v55c93 14 164 94 164 190 0 17-13 30-30 30-16 0-29-13-29-30 0-63-45-117-105-130v186c0 17-13 30-30 30-16 0-29-13-29-30v-186c-59 14-104 67-104 130 0 17-13 30-29 30-17 0-30-13-30-30 0-96 71-176 163-190v-55h-37c-16 0-30-13-30-30 0-16 14-29 30-29h37v-232c-32-12-54-42-54-78v-241h-91c-17 0-30-13-30-29 0-17 13-30 30-30h349c16 0 29 13 29 30 0 16-13 29-29 29z m-198 0v241c0 14 10 24 23 24 13 0 24-10 24-24v-241z m0 0" horiz-adv-x="1000" />

<glyph glyph-name="dishwasher" unicode="&#xe836;" d="M796 850h-684c-62 0-112-50-112-112v-776c0-62 50-112 112-112h684c61 0 112 50 112 112v776c0 62-51 112-112 112z m52-756h-789v510h789z m-789 644c0 29 24 53 53 53h684c29 0 52-24 52-53v-75h-789z m737-829h-684c-29 0-53 24-53 53v73h789v-73c0-29-23-53-52-53z m0 0m-498 592h312c16 0 30 13 30 30 0 16-14 29-30 29h-312c-17 0-30-13-30-29 0-17 13-30 30-30z m0 0m-119 258c-16 0-31-14-30-30 1-16 13-29 30-29 15 0 30 13 29 29 0 16-13 30-29 30z m0 0m137 0c-15 0-30-14-29-30 0-16 13-29 29-29 16 0 31 13 30 29-1 16-13 30-30 30z m0 0m138 0c-16 0-30-14-30-30 1-16 13-29 30-29 15 0 30 13 30 29-1 16-14 30-30 30z m0 0m137 0c-15 0-30-14-29-30 0-16 13-29 29-29 16 0 31 13 30 29-1 16-13 30-30 30z m0 0m138 0c-16 0-30-14-30-30 1-16 13-29 30-29 15 0 30 13 30 29-1 16-13 30-30 30z m0 0" horiz-adv-x="1000" />

<glyph glyph-name="fan" unicode="&#xe837;" d="M775 463c0 213-173 387-387 387-213 0-387-174-387-387 0-168 108-311 257-365v-84c-61-14-107-69-107-134 0-17 14-30 30-30h414c16 0 30 13 30 30 0 65-46 120-107 134v84c150 54 257 197 257 365z m-387 327c181 0 327-146 327-327 0-181-146-327-327-327-180 0-327 146-327 327 0 181 147 327 327 327z m171-880h-342c12 28 39 47 72 47h199c32 0 59-19 71-47z m-101 107h-140v65c23-4 46-6 70-6 24 0 47 2 70 6z m0 0m-204 200c16 0 32 4 47 13 54 31 93 85 106 145 15 4 28 11 39 20l94-54c14-8 31-12 47-12 32 0 64 17 81 47 13 22 16 47 10 72-7 24-22 44-44 57-54 31-120 38-179 18-10 11-23 20-37 25v107c0 52-42 95-94 95-53 0-95-43-95-95 0-62 27-122 74-164-3-9-5-18-5-28 0-5 1-11 2-16l-93-54c-22-13-38-33-44-57-7-25-3-50 9-72 18-30 50-47 82-47z m104 246c0 17 14 30 30 30 17 0 30-13 30-30s-13-30-30-30c-16 0-30 14-30 30z m246-10c8-5 14-12 16-21 3-9 1-18-3-26-10-17-31-23-48-13l-93 54c1 5 2 11 2 16 0 2 0 3 0 5 42 12 88 7 126-15z m-315 202c0 19 15 35 35 35s34-16 34-35v-107c-7-3-13-6-19-10-32 31-50 73-50 117z m-69-335c3 9 9 17 17 21l93 54c5-4 11-8 17-12-10-42-37-80-76-102-8-4-17-6-26-3-9 2-16 8-21 16-5 8-6 17-4 26z m0 0" horiz-adv-x="1000" />

<glyph glyph-name="armchair" unicode="&#xe838;" d="M852 500c-14 195-177 350-375 350-199 0-362-155-375-350-58-13-102-65-102-127l0-296c0-58 40-107 95-120v-78c0-16 13-29 29-29h151c16 0 30 13 30 29v74h338v-74c0-16 13-29 29-29h151c17 0 30 13 30 29v76c57 11 101 62 101 122v296c0 62-44 114-102 127z m-375 291c166 0 303-128 316-291-57-14-100-65-100-127v-29c-18 10-38 16-59 16h-314c-21 0-42-6-59-16v29c0 62-43 113-100 127 13 163 150 291 316 291z m-216-550c0 33 26 60 59 60h314c32 0 59-27 59-60v-27h-432z m-15-332h-92v44h92z m548 0h-92v44h92z m101 168c0-36-30-65-65-65h-706c-36 0-65 29-65 65l0 296c0 40 32 72 71 72 40 0 72-32 72-72v-188c0-17 13-30 29-30h491c17 0 30 13 30 30v188c0 40 32 72 71 72 40 0 72-32 72-72z m0 0" horiz-adv-x="1000" />

<glyph glyph-name="shower" unicode="&#xe839;" d="M813 18h-78v802c0 17-14 30-30 30h-566c-16 0-30-13-30-30v-802h-78c-17 0-30-13-30-30 0-76 62-138 138-138h566c76 0 138 62 138 138 0 17-13 30-30 30z m-644 680h126c7 0 12-6 12-12v-35h-13c-42 0-77-35-77-78v-35c0-16 13-30 30-30h180c16 0 29 14 29 30v35c0 43-34 78-77 78h-13v35c0 39-31 71-71 71h-126v34h506v-773h-506z m210-107c10 0 18-8 18-18v-5h-120v5c0 10 7 18 17 18z m326-682h-566c-33 0-61 21-73 49h712c-12-28-40-49-73-49z m0 0m-99 571c-16 0-29-14-29-30v-111c0-17 13-30 29-30 17 0 30 13 30 30v111c0 16-13 30-30 30z m0 0" horiz-adv-x="1000" />

<glyph glyph-name="lamp-old" unicode="&#xe83a;" d="M1000 527l-39 200c-2 14-14 25-29 25h-132c-14 0-26-11-29-25l-38-200c-2-9 1-18 6-24s14-11 23-11h30v-21c0-27 14-50 35-63-3-4-5-9-8-13-20-24-47-37-82-37-74 0-103 60-109 74-2 14-14 25-29 25h-24v364c0 16-13 29-30 29h-90c-17 0-30-13-30-29v-364h-24c-15 0-27-11-29-25-6-14-34-74-109-74-34 0-61 12-80 36-4 4-7 9-10 14 21 13 35 36 35 63v21h30c9 0 17 4 23 11s8 15 6 24l-38 200c-3 14-15 25-29 25h-132c-14 0-27-11-29-25l-38-200c-2-9 0-18 6-24 5-7 14-11 23-11h29v-21c0-34 22-62 52-71 5-12 12-26 24-41 21-27 61-60 128-60 52 0 97 20 130 58 18-27 45-47 78-54v-2c0-16 13-29 29-29 16 0 30 13 30 29v2c32 7 59 27 77 54 33-38 79-58 130-58 67 0 107 33 128 60 12 15 19 29 24 41 30 9 52 37 52 71v21h30c8 0 17 4 22 11s8 15 7 24z m-516 264h32v-334h-32z m-392-99h83l27-141h-137z m57-200v-21c0-9-7-16-15-16-9 0-16 7-16 16v21z m351-134c-28 0-52 17-63 40h126c-11-23-35-40-63-40z m325 334h83l27-141h-137z m57-221c0-9-7-16-16-16-8 0-15 7-15 16v21h31z m0 0" horiz-adv-x="1000" />

<glyph glyph-name="fireplace" unicode="&#xe83b;" d="M970 124h-28v667h28c17 0 30 13 30 29 0 17-13 30-30 30h-940c-17 0-30-13-30-30 0-16 13-29 30-29h28v-667h-28c-17 0-30-13-30-30 0-16 13-29 30-29h940c17 0 30 13 30 29 0 17-13 30-30 30z m-507 37c0 11 16 45 37 82 21-37 37-71 37-82 0-20-17-37-37-37s-37 17-37 37z m130 22c-4 15-13 39-34 76-17 31-33 57-34 58-5 8-15 13-25 13-10 0-19-5-25-13-1-1-17-27-34-58-20-37-30-61-34-76-6 13-10 28-10 44 0 40 56 145 103 224 47-79 103-184 103-224 0-16-3-31-10-44z m33-59c23 28 37 64 37 103 0 13 0 54-70 182-34 61-67 112-68 114-5 8-15 14-25 14-10 0-19-6-25-14-1-2-34-53-68-114-70-128-70-169-70-182 0-39 14-75 37-103h-143v466h538v-466z m203 0v496c0 17-14 30-30 30h-598c-16 0-30-13-30-30v-496h-54v667h766v-667z m0 0m-228 627h-202c-17 0-30-13-30-30 0-16 13-29 30-29h202c17 0 30 13 30 29 0 17-13 30-30 30z m0 0" horiz-adv-x="1000" />

<glyph glyph-name="shelves" unicode="&#xe83c;" d="M919 627c16 0 30 13 30 29v100c0 16-14 30-30 30h-73v35c0 16-13 29-29 29-17 0-30-13-30-29v-35h-625v35c0 16-13 29-29 29-16 0-29-13-29-29v-35h-74c-16 0-29-14-29-30v-100c0-16 13-29 29-29h74v-126h-74c-16 0-29-14-29-30v-100c0-16 13-29 29-29h74v-126h-74c-16 0-29-13-29-30v-100c0-16 13-29 29-29h74v-180c0-16 13-29 29-29 16 0 29 13 29 29v180h625v-180c0-16 13-29 30-29 16 0 29 13 29 29v180h73c16 0 30 13 30 29v100c0 17-14 30-30 30h-73v126h73c16 0 30 13 30 29v100c0 16-14 30-30 30h-73v126z m-29 100v-42h-44v42z m-103 0v-42h-625v42z m-727-42v42h44v-42z m0-285v42h44v-42z m102 42h625v-42h-625z m-102-326v41h44v-41z m102 0v41h625v-41z m728 41v-41h-44v41z m-103 59h-625v126h625z m103 226v-42h-44v42z m-103 59h-625v126h625z m0 0" horiz-adv-x="1000" />

<glyph glyph-name="chest-of-drawers" unicode="&#xe83d;" d="M262 709c15 0 30 14 30 30-1 16-14 30-30 30-16 0-31-14-30-30 1-16 13-30 30-30z m0 0m708 141h-940c-17 0-30-13-30-30v-313c0-17 13-30 30-30h30v-196c0-17 13-30 29-30s30 13 30 30v196h27v-196c0-17 14-30 30-30s30 13 30 30v196h588v-196c0-17 14-30 30-30 16 0 30 13 30 30v196h27v-196c0-17 13-30 30-30 16 0 30 13 30 30v196h29c17 0 30 13 30 30v313c0 17-13 30-30 30z m-910-59h254v-254h-254z m313 0h254v-254h-254z m568-254h-254v254h254z m0 0m-52 172c15 0 30 14 30 30-1 16-14 30-30 30-16 0-31-14-30-30 1-16 13-30 30-30z m0 0m-353 34h-66c-16 0-30-13-30-30s14-29 30-29h66c17 0 30 13 30 29s-13 30-30 30z m0 0m0-100h-66c-16 0-30-13-30-29s14-30 30-30h66c17 0 30 13 30 30s-13 29-30 29z m0 0" horiz-adv-x="1000" />

<glyph glyph-name="towel-rail" unicode="&#xe83f;" d="M970 746h-111v16c0 48-40 88-89 88h-544c-49 0-89-40-89-88v-16h-107c-17 0-30-14-30-30s13-30 30-30h107v-433c0-49 40-88 89-88h427c49 0 89 39 89 88v13h29c48 0 88 39 88 88v332h111c17 0 30 13 30 30s-13 30-30 30z m-171 16v-16h-57v16c0 15 12 28 28 28s29-13 29-28z m-602-322h485v-67h-485z m29 350h461c-3-9-5-18-5-28v-262h-485v216c0 0 0 0 0 0s0 0 0 0v46c0 15 13 28 29 28z m456-537c0-16-13-28-29-28h-427c-16 0-29 12-29 28v60h485z m117 101c0-16-13-29-28-29h-29v361h57z m0 0" horiz-adv-x="1000" />

<glyph glyph-name="bath" unicode="&#xe840;" d="M1000 208c0 42-34 76-75 76h-720v137h51c16 0 29 13 29 29 0 16-13 29-29 29h-51v227c0 47 39 86 87 86 47 0 85-38 86-84h-12c-42 0-75-34-75-75v-35c0-16 13-29 29-29h175c16 0 29 13 29 29v35c0 41-34 75-75 75h-13c-1 78-65 142-144 142-80 0-145-65-145-144v-422h-72c-41 0-75-34-75-76 0-33 22-61 52-71 8-81 52-152 117-194l-22-29c-10-13-8-31 5-41 5-4 12-6 18-6 8 0 17 4 23 12l28 37c29-11 60-17 92-17h360c36 0 71 8 103 21l31-41c6-8 15-12 23-12 7 0 13 2 18 6 13 10 15 28 6 41l-27 35c42 31 76 74 94 126l21 60c33 8 58 38 58 73z m-534 425v-6h-117v6c0 9 7 17 17 17h83c9 0 17-8 17-17z m-391-407h850c9 0 17-8 17-18 0-9-8-17-17-17h-850c-9 0-17 8-17 17 0 10 8 18 17 18z m791-132c-14-40-41-75-74-99l-34 44c-9 13-27 16-40 6-13-10-16-28-6-41l27-36c-21-7-43-11-66-11h-360c-19 0-37 3-55 8l30 39c10 13 7 31-6 41s-31 7-40-6l-38-50c-50 32-85 83-93 144h769z m0 0" horiz-adv-x="1000" />

<glyph glyph-name="rug" unicode="&#xe841;" d="M991 554c-11 12-30 12-41 0l-22-22-16 16 22 22c11 12 11 30 0 42-11 11-30 11-42 0l-21-22-16 16 22 22c11 11 11 30 0 41-12 12-30 12-42 0l-22-22-16 16 22 22c12 12 12 30 0 42s-30 11-41 0l-22-22-16 16 22 21c11 12 11 31 0 42-12 11-30 11-42 0l-22-22-16 16 22 22c12 11 12 30 0 41s-30 12-41 0l-654-654c-12-11-12-30 0-41 5-6 13-9 20-9 8 0 15 3 21 9l22 22 16-16-22-22c-11-12-11-30 0-42 6-5 13-8 21-8s15 3 21 8l21 22 16-16-21-22c-12-11-12-30 0-41 5-6 13-9 20-9s15 3 21 9l22 22 16-16-22-22c-12-11-12-30 0-42 6-5 13-8 21-8 7 0 15 3 20 8l22 22 16-16-22-21c-11-12-11-31 0-42 6-6 14-9 21-9 8 0 15 3 21 9l22 22 16-16-22-22c-12-11-12-30 0-41 6-6 13-9 21-9 7 0 15 3 20 9l654 654c12 11 12 30 0 41z m-531-489l-245 245 325 326 246-246z m-287 204l246-246-60-60-246 246z m654 162l-246 246 60 60 246-246z m0 0" horiz-adv-x="1000" />

<glyph glyph-name="stool" unicode="&#xe842;" d="M698 850h-566c-73 0-132-59-132-132v-67c0-16 13-30 30-30h355v-233c-114-14-202-112-202-230v-278c0-17 13-30 30-30s30 13 30 30v195h142v-195c0-17 13-30 30-30 16 0 30 13 30 30v195h142v-195c0-17 13-30 30-30s30 13 30 30v278c0 118-89 216-202 230v233h354c17 0 30 14 30 30v67c0 73-59 132-131 132z m-455-715v23c0 85 61 155 142 170v-193z m344 23v-23h-142v193c80-15 142-85 142-170z m182 523h-709v37c0 40 32 72 72 72h566c39 0 71-32 71-72z m0 0" horiz-adv-x="1000" />

<glyph glyph-name="sink" unicode="&#xe843;" d="M632 613h-337v148c0 16 13 29 30 29 16 0 30-13 30-29v-26c0-17 13-30 29-30 17 0 30 13 30 30v26c0 49-40 89-89 89-50 0-90-40-90-89v-43h-29c-16 0-30-13-30-29 0-17 14-30 30-30h29v-46h-205c-17 0-30-13-30-29v-7c0-140 98-257 229-286v-411c0-17 13-30 30-30h144c16 0 29 13 29 30v411c131 29 229 146 229 286v7c0 16-13 29-29 29z m-263-269h-77c-120 0-220 92-231 210h540c-12-118-111-210-232-210z m4-434h-84v374h84z m0 0" horiz-adv-x="1000" />

<glyph glyph-name="clock" unicode="&#xe844;" d="M854 704c-95 94-220 146-354 146s-259-52-354-146c-94-95-146-220-146-354s52-259 146-354c95-94 220-146 354-146s259 52 354 146c94 95 146 220 146 354s-52 259-146 354z m-354-795c-243 0-441 198-441 441s198 441 441 441 441-198 441-441-198-441-441-441z m0 0m73 556l-72-73-166 166c-12 11-31 11-42 0-12-12-12-30 0-42l187-187c5-6 13-9 21-9 7 0 15 3 20 9l94 94c12 11 12 30 0 42-11 11-30 11-42 0z m0 0m-73 220c16 0 30 14 30 30-1 16-13 29-30 29-15 0-30-13-30-29 1-16 13-30 30-30z m0 0m-182-49c15 0 30 14 29 30 0 16-13 29-29 29-16 0-31-13-30-29 1-16 13-30 30-30z m0 0m-134-134c16 0 31 14 30 30-1 16-13 30-30 30-15 0-30-14-29-30 1-16 13-30 29-30z m0 0m-19-152c0 16-13 29-29 29-16 0-31-13-30-29 1-17 13-30 30-30 15 0 30 14 29 30z m0 0m20-153c-16 0-30-14-30-30 1-16 13-29 30-29 15 0 30 13 29 29 0 16-13 30-29 30z m0 0m134-134c-16 0-31-13-30-29 1-16 13-30 30-30 15 0 30 14 29 30-1 16-13 29-29 29z m0 0m182-48c-15 0-30-14-29-30 0-16 13-29 29-29 16 0 30 13 30 29-1 16-13 30-30 30z m0 0m182 49c-15 0-30-14-29-30 1-16 13-29 29-29 16 0 31 13 30 29-1 16-13 30-30 30z m0 0m134 134c-16 0-31-14-30-30 1-16 13-29 30-29 15 0 30 13 29 29 0 16-13 30-29 30z m0 0m48 182c-15 0-30-13-29-29 1-16 13-30 29-30 16 0 31 14 30 30-1 16-13 29-30 29z m0 0m-49 123c16 0 31 14 30 30-1 16-13 29-30 29-15 0-30-13-29-29 0-16 13-30 29-30z m0 0m-133 134c15 0 30 13 29 29-1 16-13 30-29 30-16 0-31-14-30-30 1-16 13-29 30-29z m0 0" horiz-adv-x="1000" />
</font>
</defs>
</svg>
